<svg width="32" height="32" viewBox="0 0 32 32" fill="none" xmlns="http://www.w3.org/2000/svg">
<path d="M32 32H0V0H32V32Z" stroke="#E5E7EB"/>
<path d="M19.5875 2.05631C21.2125 2.38131 22.2688 3.96256 21.9438 5.58756L21.8 6.30006C21.4687 7.96881 20.8562 9.55631 20 11.0001H29C30.6562 11.0001 32 12.3438 32 14.0001C32 15.1563 31.3438 16.1626 30.3813 16.6626C31.0625 17.2126 31.5 18.0563 31.5 19.0001C31.5 20.4626 30.45 21.6813 29.0688 21.9438C29.3438 22.4001 29.5 22.9313 29.5 23.5001C29.5 24.8313 28.6312 25.9626 27.4312 26.3501C27.475 26.5563 27.5 26.7751 27.5 27.0001C27.5 28.6563 26.1562 30.0001 24.5 30.0001H18.4062C17.2188 30.0001 16.0625 29.6501 15.075 28.9938L12.6687 27.3876C11 26.2751 10 24.4001 10 22.3938V20.0001V17.0001V15.4438C10 13.6188 10.8312 11.9001 12.25 10.7563L12.7125 10.3876C14.3687 9.06256 15.5 7.20006 15.9125 5.12506L16.0562 4.41256C16.3812 2.78756 17.9625 1.73131 19.5875 2.05631ZM2 12.0001H6C7.10625 12.0001 8 12.8938 8 14.0001V28.0001C8 29.1063 7.10625 30.0001 6 30.0001H2C0.89375 30.0001 0 29.1063 0 28.0001V14.0001C0 12.8938 0.89375 12.0001 2 12.0001Z" fill="#F97316"/>
</svg>
