<svg width="36" height="32" viewBox="0 0 36 32" fill="none" xmlns="http://www.w3.org/2000/svg">
<path d="M36 32H0V0H36V32Z" stroke="#E5E7EB"/>
<path d="M19 15V1.0375C19 0.475 19.4375 0 20 0C27.7312 0 34 6.26875 34 14C34 14.5625 33.525 15 32.9625 15H19ZM2 17C2 9.41875 7.63125 3.14375 14.9375 2.14375C15.5125 2.0625 16 2.525 16 3.10625V18L25.7812 27.7812C26.2 28.2 26.1687 28.8875 25.6875 29.225C23.2375 30.975 20.2375 32 17 32C8.71875 32 2 25.2875 2 17ZM34.9 18C35.4813 18 35.9375 18.4875 35.8625 19.0625C35.3812 22.5563 33.7 25.6625 31.2437 27.9562C30.8687 28.3062 30.2813 28.2813 29.9188 27.9125L20 18H34.9Z" fill="#F97316"/>
</svg>
