<svg width="32" height="32" viewBox="0 0 32 32" fill="none" xmlns="http://www.w3.org/2000/svg">
<path d="M32 32H0V0H32V32Z" stroke="#E5E7EB"/>
<path d="M17.5002 1.5C17.5002 0.66875 16.8314 0 16.0002 0C15.1689 0 14.5002 0.66875 14.5002 1.5V6.5C14.5002 7.33125 15.1689 8 16.0002 8C16.8314 8 17.5002 7.33125 17.5002 6.5V1.5ZM11.6127 14H20.3877C20.8127 14 21.1877 14.2688 21.3314 14.6625L22.5189 18H9.48145L10.6752 14.6625C10.8189 14.2625 11.1939 14 11.6189 14H11.6127ZM6.90645 13.3188L5.1377 18.275C3.88145 18.8062 3.0002 20.05 3.0002 21.5V24V28V30C3.0002 31.1063 3.89395 32 5.0002 32H6.0002C7.10645 32 8.0002 31.1063 8.0002 30V28H24.0002V30C24.0002 31.1063 24.8939 32 26.0002 32H27.0002C28.1064 32 29.0002 31.1063 29.0002 30V28V24V21.5C29.0002 20.05 28.1189 18.8062 26.8627 18.275L25.0939 13.3188C24.3814 11.3313 22.5002 10 20.3877 10H11.6127C9.5002 10 7.6127 11.3313 6.90645 13.3188ZM8.0002 21.5C8.39802 21.5 8.77955 21.658 9.06086 21.9393C9.34216 22.2206 9.5002 22.6022 9.5002 23C9.5002 23.3978 9.34216 23.7794 9.06086 24.0607C8.77955 24.342 8.39802 24.5 8.0002 24.5C7.60237 24.5 7.22084 24.342 6.93954 24.0607C6.65823 23.7794 6.5002 23.3978 6.5002 23C6.5002 22.6022 6.65823 22.2206 6.93954 21.9393C7.22084 21.658 7.60237 21.5 8.0002 21.5ZM22.5002 23C22.5002 22.6022 22.6582 22.2206 22.9395 21.9393C23.2208 21.658 23.6024 21.5 24.0002 21.5C24.398 21.5 24.7795 21.658 25.0609 21.9393C25.3422 22.2206 25.5002 22.6022 25.5002 23C25.5002 23.3978 25.3422 23.7794 25.0609 24.0607C24.7795 24.342 24.398 24.5 24.0002 24.5C23.6024 24.5 23.2208 24.342 22.9395 24.0607C22.6582 23.7794 22.5002 23.3978 22.5002 23ZM2.4377 2.4375C1.8502 3.025 1.8502 3.975 2.4377 4.55625L5.4377 7.55625C6.0252 8.14375 6.9752 8.14375 7.55645 7.55625C8.1377 6.96875 8.14395 6.01875 7.55645 5.4375L4.5627 2.4375C3.9752 1.85 3.0252 1.85 2.44395 2.4375H2.4377ZM27.4377 2.4375L24.4377 5.4375C23.8502 6.025 23.8502 6.975 24.4377 7.55625C25.0252 8.1375 25.9752 8.14375 26.5564 7.55625L29.5564 4.55625C30.1439 3.96875 30.1439 3.01875 29.5564 2.4375C28.9689 1.85625 28.0189 1.85 27.4377 2.4375Z" fill="#F97316"/>
</svg>
