<svg width="24" height="32" viewBox="0 0 24 32" fill="none" xmlns="http://www.w3.org/2000/svg">
<g clip-path="url(#clip0_365_111)">
<path d="M10.8623 0.343652C11.5498 -0.112598 12.4498 -0.112598 13.1373 0.343652L14.2498 1.0749C14.6248 1.31865 15.0623 1.4374 15.5061 1.4124L16.8373 1.33115C17.6623 1.28115 18.4373 1.73115 18.8061 2.46865L19.4061 3.6624C19.6061 4.0624 19.9311 4.38115 20.3248 4.58115L21.5311 5.1874C22.2686 5.55615 22.7186 6.33115 22.6686 7.15615L22.5873 8.4874C22.5623 8.93115 22.6811 9.3749 22.9248 9.74365L23.6623 10.8562C24.1186 11.5437 24.1186 12.4437 23.6623 13.1312L22.9248 14.2499C22.6811 14.6249 22.5623 15.0624 22.5873 15.5062L22.6686 16.8374C22.7186 17.6624 22.2686 18.4374 21.5311 18.8062L20.3373 19.4062C19.9373 19.6062 19.6186 19.9312 19.4186 20.3249L18.8123 21.5312C18.4436 22.2687 17.6686 22.7187 16.8436 22.6687L15.5123 22.5874C15.0686 22.5624 14.6248 22.6812 14.2561 22.9249L13.1436 23.6624C12.4561 24.1187 11.5561 24.1187 10.8686 23.6624L9.74981 22.9249C9.37481 22.6812 8.93731 22.5624 8.49356 22.5874L7.16231 22.6687C6.33732 22.7187 5.56231 22.2687 5.19356 21.5312L4.59356 20.3374C4.39357 19.9374 4.06856 19.6187 3.67481 19.4187L2.46856 18.8124C1.73106 18.4437 1.28106 17.6687 1.33106 16.8437L1.41231 15.5124C1.43731 15.0687 1.31856 14.6249 1.07481 14.2562L0.343565 13.1374C-0.112685 12.4499 -0.112685 11.5499 0.343565 10.8624L1.07481 9.7499C1.31856 9.3749 1.43731 8.9374 1.41231 8.49365L1.33106 7.1624C1.28106 6.3374 1.73106 5.5624 2.46856 5.19365L3.66231 4.59365C4.06231 4.3874 4.38732 4.0624 4.58732 3.6624L5.18731 2.46865C5.55607 1.73115 6.33107 1.28115 7.15606 1.33115L8.48732 1.4124C8.93107 1.4374 9.37481 1.31865 9.74356 1.0749L10.8623 0.343652ZM16.9998 11.9999C16.9998 10.6738 16.473 9.40205 15.5353 8.46437C14.5977 7.52669 13.3259 6.9999 11.9998 6.9999C10.6737 6.9999 9.40196 7.52669 8.46428 8.46437C7.5266 9.40205 6.99981 10.6738 6.99981 11.9999C6.99981 13.326 7.5266 14.5978 8.46428 15.5354C9.40196 16.4731 10.6737 16.9999 11.9998 16.9999C13.3259 16.9999 14.5977 16.4731 15.5353 15.5354C16.473 14.5978 16.9998 13.326 16.9998 11.9999ZM0.0810648 27.6124L2.77481 21.2062C2.78731 21.2124 2.79356 21.2187 2.79981 21.2312L3.39981 22.4249C4.13106 23.8749 5.64982 24.7562 7.27482 24.6624L8.60606 24.5812C8.61856 24.5812 8.63731 24.5812 8.64981 24.5937L9.76231 25.3312C10.0811 25.5374 10.4186 25.6999 10.7686 25.8124L8.41856 31.3937C8.27481 31.7374 7.95607 31.9687 7.58732 31.9999C7.21856 32.0312 6.86231 31.8624 6.66231 31.5499L4.64982 28.4687L1.14356 28.9874C0.787315 29.0374 0.431065 28.8937 0.206065 28.6124C-0.0189352 28.3312 -0.0626852 27.9437 0.0748148 27.6124H0.0810648ZM15.5811 31.3874L13.2311 25.8124C13.5811 25.6999 13.9186 25.5437 14.2373 25.3312L15.3498 24.5937C15.3623 24.5874 15.3748 24.5812 15.3936 24.5812L16.7248 24.6624C18.3498 24.7562 19.8686 23.8749 20.5998 22.4249L21.1998 21.2312C21.2061 21.2187 21.2123 21.2124 21.2248 21.2062L23.9248 27.6124C24.0623 27.9437 24.0123 28.3249 23.7936 28.6124C23.5748 28.8999 23.2123 29.0437 22.8561 28.9874L19.3498 28.4687L17.3373 31.5437C17.1373 31.8562 16.7811 32.0249 16.4123 31.9937C16.0436 31.9624 15.7248 31.7249 15.5811 31.3874Z" fill="#F97316"/>
</g>
<defs>
<clipPath id="clip0_365_111">
<path d="M0 0H24V32H0V0Z" fill="white"/>
</clipPath>
</defs>
</svg>
