<svg width="40" height="32" viewBox="0 0 40 32" fill="none" xmlns="http://www.w3.org/2000/svg">
<g clip-path="url(#clip0_365_117)">
<path d="M9 10C10.3261 10 11.5979 9.47322 12.5355 8.53553C13.4732 7.59785 14 6.32608 14 5C14 3.67392 13.4732 2.40215 12.5355 1.46447C11.5979 0.526784 10.3261 0 9 0C7.67392 0 6.40215 0.526784 5.46447 1.46447C4.52678 2.40215 4 3.67392 4 5C4 6.32608 4.52678 7.59785 5.46447 8.53553C6.40215 9.47322 7.67392 10 9 10ZM32 10C33.3261 10 34.5979 9.47322 35.5355 8.53553C36.4732 7.59785 37 6.32608 37 5C37 3.67392 36.4732 2.40215 35.5355 1.46447C34.5979 0.526784 33.3261 0 32 0C30.6739 0 29.4021 0.526784 28.4645 1.46447C27.5268 2.40215 27 3.67392 27 5C27 6.32608 27.5268 7.59785 28.4645 8.53553C29.4021 9.47322 30.6739 10 32 10ZM0 18.6688C0 19.4 0.6 20 1.33125 20H14.6687C14.6812 20 14.6937 20 14.7125 20C13.05 18.5312 12.0063 16.3875 12.0063 14C12.0063 13.525 12.05 13.0625 12.125 12.6062C11.275 12.2125 10.3312 12 9.3375 12H6.66875C2.9875 12 0 14.9875 0 18.6688ZM20 20C21.5 20 22.8688 19.45 23.9188 18.5438C24.075 18.3125 24.2438 18.0875 24.4188 17.875C24.5875 17.6688 24.775 17.4938 24.9813 17.3563C25.625 16.3938 26 15.2437 26 14C26 10.6875 23.3125 8 20 8C16.6875 8 14 10.6875 14 14C14 17.3125 16.6875 20 20 20ZM24.0875 23.7625C23.4438 23.3938 22.9563 22.75 22.7875 22H16.3312C11.7312 22 8 25.7312 8 30.3312C8 31.25 8.74375 32 9.66875 32H28.45C28.3188 31.675 28.25 31.3188 28.25 30.975V30.7875C28.1688 30.7437 28.0812 30.6937 28 30.6437L27.8375 30.7375C26.7875 31.3438 25.3063 31.2375 24.4188 30.1313C24.1375 29.7812 23.8812 29.4125 23.6437 29.0312L23.6375 29.0187L23.6313 29.0063L23.4813 28.75L23.475 28.7375L23.4688 28.725C23.2563 28.3375 23.0688 27.9375 22.9062 27.5187C22.3937 26.1937 23.0438 24.8563 24.0938 24.25L24.2625 24.1562C24.2625 24.1063 24.2625 24.0625 24.2625 24.0125C24.2625 23.9625 24.2625 23.9187 24.2625 23.8687L24.0938 23.775L24.0875 23.7625ZM33.3312 12H30.6688C29.675 12 28.7313 12.2188 27.8813 12.6062C27.9625 13.0562 28 13.525 28 14C28 15.0875 27.7812 16.1187 27.3937 17.0625C27.55 17.1187 27.7 17.1875 27.8375 17.2687L28 17.3625C28.0812 17.3125 28.1625 17.2625 28.25 17.2188V17.0312C28.25 15.8188 29.0812 14.5875 30.4875 14.3687C30.9812 14.2937 31.4875 14.25 32 14.25C32.5125 14.25 33.0187 14.2875 33.5125 14.3687C34.9188 14.5875 35.75 15.8188 35.75 17.0312V17.2188C35.8312 17.2625 35.9188 17.3125 36 17.3625L36.1625 17.2687C37.2125 16.6625 38.6937 16.7687 39.5812 17.875C39.725 18.05 39.8625 18.2375 39.9938 18.4188C39.8625 14.85 36.9312 12 33.3312 12ZM39.0375 22.2437C39.4312 22.0187 39.6313 21.55 39.4625 21.1187C39.3313 20.775 39.175 20.4438 39 20.125L38.8563 19.875C38.6625 19.5562 38.45 19.2563 38.2188 18.9688C37.9313 18.6125 37.425 18.55 37.0312 18.7812L35.9 19.4375C35.3438 18.9625 34.7062 18.5875 34 18.3375V17.025C34 16.5688 33.6938 16.1625 33.2438 16.0938C32.8375 16.0312 32.425 16 32 16C31.575 16 31.1625 16.0312 30.7563 16.0938C30.3062 16.1625 30 16.5688 30 17.025V18.3375C29.3 18.5875 28.6562 18.9625 28.1 19.4375L26.9625 18.7812C26.5688 18.5562 26.0625 18.6187 25.775 18.9688C25.5437 19.2563 25.3313 19.5625 25.1375 19.8813L24.9937 20.125C24.8188 20.4438 24.6625 20.775 24.5312 21.1187C24.3687 21.5437 24.5625 22.0125 24.9562 22.2375L26.0938 22.8937C26.0312 23.25 25.9937 23.6187 25.9937 23.9937C25.9937 24.3687 26.0312 24.7375 26.0938 25.0875L24.9562 25.7437C24.5625 25.9688 24.3625 26.4375 24.5312 26.8625C24.6625 27.2062 24.8188 27.5312 24.9937 27.85L25.1437 28.1063C25.3312 28.425 25.5437 28.725 25.775 29.0125C26.0625 29.3688 26.5688 29.4313 26.9625 29.2L28.1 28.5625C28.6562 29.0375 29.3 29.4125 30 29.6625V30.975C30 31.4312 30.3062 31.8375 30.7563 31.9062C31.1625 31.9688 31.575 32 32 32C32.425 32 32.8375 31.9688 33.2438 31.9062C33.6938 31.8375 34 31.4312 34 30.975V29.6625C34.7 29.4125 35.3438 29.0375 35.9 28.5625L37.0375 29.2188C37.4312 29.4438 37.9375 29.3813 38.225 29.0312C38.4562 28.7437 38.6688 28.4438 38.8563 28.125L39.0062 27.8625C39.1812 27.5437 39.3375 27.2188 39.4688 26.875C39.6312 26.45 39.4375 25.9813 39.0438 25.7563L37.9062 25.1C37.9688 24.7437 38.0062 24.375 38.0062 24.0063C38.0062 23.6375 37.9688 23.2625 37.9062 22.9062L39.0438 22.25L39.0375 22.2437ZM29.5 24C29.5 23.337 29.7634 22.7011 30.2322 22.2322C30.7011 21.7634 31.337 21.5 32 21.5C32.663 21.5 33.2989 21.7634 33.7678 22.2322C34.2366 22.7011 34.5 23.337 34.5 24C34.5 24.663 34.2366 25.2989 33.7678 25.7678C33.2989 26.2366 32.663 26.5 32 26.5C31.337 26.5 30.7011 26.2366 30.2322 25.7678C29.7634 25.2989 29.5 24.663 29.5 24Z" fill="#F97316"/>
</g>
<defs>
<clipPath id="clip0_365_117">
<path d="M0 0H40V32H0V0Z" fill="white"/>
</clipPath>
</defs>
</svg>
